dummy_motion.mot
version=1
nRows=25
nColumns=11
inDegrees=No
endheader
                time	         pelvis_tilt	           pelvis_tx	           pelvis_ty	       hip_flexion_l	       hip_flexion_r	        knee_angle_l	        knee_angle_r	       ankle_angle_l	       ankle_angle_r	    lumbar_extension	
          5.00100020	          0.00000000	          0.00000000	          0.00000000	         -0.55994860	         -0.17922538	         -0.11094806	         -1.12045861	          0.27601925	         -0.41473738	          0.42840968	
          5.00300060	          0.00000000	          0.00000000	          0.00000000	         -0.37318435	         -0.55168126	         -0.99280433	         -0.90689502	          0.36075779	          0.31864801	         -0.43773720	
          5.00500100	          0.00000000	          0.00000000	          0.00000000	         -0.53935057	         -0.38346082	         -0.35303976	         -0.05034145	         -0.20253863	          0.05795041	         -0.05121813	
          5.00700140	          0.00000000	          0.00000000	          0.00000000	          0.45894344	          0.84214408	         -0.08380279	         -1.16464276	          0.03220104	          0.11761595	          0.51213928	
          5.00900180	          0.00000000	          0.00000000	          0.00000000	          0.12076926	          0.55072384	         -0.10315540	         -1.02058415	          0.23703094	          0.42301979	          0.07340007	
          5.01100220	          0.00000000	          0.00000000	          0.00000000	          0.22270963	          0.49030489	         -1.42430575	         -0.70015488	         -0.04860292	         -0.29332163	         -0.04935207	
          5.01300260	          0.00000000	          0.00000000	          0.00000000	          0.58531171	         -0.00603023	         -0.12499056	         -0.68202350	         -0.32579786	          0.42579155	          0.17166654	
          5.01500300	          0.00000000	          0.00000000	          0.00000000	         -0.07350080	         -0.35351789	         -1.22642294	         -1.04625902	         -0.42701181	          0.50099021	         -0.17728294	
          5.01700340	          0.00000000	          0.00000000	          0.00000000	          0.29635265	         -0.70163466	         -1.29058802	         -0.17218954	          0.46136124	          0.12511674	          0.28994894	
          5.01900380	          0.00000000	          0.00000000	          0.00000000	          0.11666296	          0.24040977	         -0.38514078	         -1.01896482	         -0.25998845	          0.20564316	          0.43327555	
          5.02100420	          0.00000000	          0.00000000	          0.00000000	          0.87252177	         -0.20850104	         -0.82881386	         -0.85568502	         -0.27586311	         -0.48201228	          0.25123448	
          5.02300460	          0.00000000	          0.00000000	          0.00000000	          0.26706664	          0.15799104	         -1.01710561	         -1.46555355	          0.02619964	          0.35327924	          0.44461358	
          5.02500500	          0.00000000	          0.00000000	          0.00000000	         -0.41587986	          0.38087718	         -1.50390032	         -0.59774812	         -0.27442015	          0.23768054	         -0.23699332	
          5.02700540	          0.00000000	          0.00000000	          0.00000000	         -0.16252317	          0.29739612	         -1.23861052	         -0.62519665	          0.00137885	          0.41328674	          0.17562387	
          5.02900580	          0.00000000	          0.00000000	          0.00000000	         -0.47947800	         -0.34928432	         -1.28799517	         -0.14121348	         -0.23720346	         -0.28161010	          0.05717342	
          5.03100620	          0.00000000	          0.00000000	          0.00000000	          0.02976606	          0.27535086	         -0.24675490	         -0.17031621	          0.39446613	          0.45289575	         -0.43492948	
          5.03300660	          0.00000000	          0.00000000	          0.00000000	          0.17448238	         -0.31375329	         -1.01070802	         -0.49347701	         -0.17281245	         -0.48045256	          0.16544450	
          5.03500700	          0.00000000	          0.00000000	          0.00000000	         -0.55361914	         -0.46345392	         -1.49066969	         -1.18251543	          0.31507513	          0.33969699	          0.03847272	
          5.03700740	          0.00000000	          0.00000000	          0.00000000	          0.35162261	          0.22941531	         -0.45151627	         -1.45542593	          0.05561178	         -0.22016384	         -0.31724973	
          5.03900780	          0.00000000	          0.00000000	          0.00000000	         -0.32313894	         -0.07434434	         -1.28512797	         -0.71448317	          0.08833322	          0.33391681	         -0.13005074	
          5.04100820	          0.00000000	          0.00000000	          0.00000000	         -0.17334777	          0.53236495	         -1.08143492	         -1.39184132	         -0.31111731	          0.01483287	         -0.23216172	
          5.04300860	          0.00000000	          0.00000000	          0.00000000	         -0.29062257	          0.76330214	         -0.27355897	         -1.02282410	         -0.36662112	         -0.21447511	          0.35348258	
          5.04500900	          0.00000000	          0.00000000	          0.00000000	         -0.82434319	         -0.25285823	         -0.17384243	         -0.80411896	          0.04871675	          0.47153043	          0.39044701	
          5.04700940	          0.00000000	          0.00000000	          0.00000000	         -0.48448062	          0.41928156	         -0.61053236	         -1.00133874	          0.22880544	         -0.35216234	          0.41577708	
          5.04900980	          0.00000000	          0.00000000	          0.00000000	          0.00778058	          0.69060695	         -0.06034142	         -1.49145125	          0.22222163	         -0.48079568	          0.52181174	
